# xmcd
#
# Track frame offsets: 
#        150
#        12360
#        27567
#        44822
#        66582
#        90955
#        110972
#        129362
#        154030
#        175012
#        191940
#        208722
#
# Disc length: 3004 seconds
#
# Revision: 0
# Processed by: cddbd v1.5.2PL0 Copyright (c) Steve Scherf et al.
# Submitted via: ExactAudioCopy v0.99pb4
#
DISCID=af0bba0c
DTITLE=Drag the River, Grandpa's Ghost, Spot, Stop and Listen Boys - Whi
DTITLE=te Out on Black Ice (An UPLAND Records compilation)
DYEAR=1900
DGENRE=Country
TTITLE0=Disbelieve - Drag The River
TTITLE1=Bug Country - Drag The River
TTITLE2=Tomorrow Morning - Drag The River
TTITLE3=Choking On The Dust - Grandpa's Ghost
TTITLE4=Long Hair - Grandpa's Ghost
TTITLE5=Same As You - Grandpa's Ghost (live)
TTITLE6=Monk's Misfortune - Spot
TTITLE7=Bastard Betty Blues - Spot
TTITLE8=Ministry Of Funny Dances, The - Spot
TTITLE9=Corrina - The Stop and Listen Boys
TTITLE10=Ain't No Tellin' - The Stop and Listen Boys
TTITLE11=You May Leave - The Stop and Listen Boys
EXTD=
EXTT0=
EXTT1=
EXTT2=
EXTT3=
EXTT4=
EXTT5=
EXTT6=
EXTT7=
EXTT8=
EXTT9=
EXTT10=
EXTT11=
PLAYORDER=
